<svg id="instagram_6_" data-name="instagram (6)" xmlns="http://www.w3.org/2000/svg" width="30" height="30" viewBox="0 0 30 30">
  <path id="Path_5835" data-name="Path 5835" d="M212.667,209.833A2.833,2.833,0,1,1,209.833,207,2.833,2.833,0,0,1,212.667,209.833Zm0,0" transform="translate(-194.833 -194.833)" fill="#fff"/>
  <path id="Path_5836" data-name="Path 5836" d="M148.166,137.313a2.626,2.626,0,0,0-1.5-1.5,4.387,4.387,0,0,0-1.472-.273c-.836-.038-1.087-.046-3.2-.046s-2.368.008-3.2.046a4.39,4.39,0,0,0-1.472.273,2.627,2.627,0,0,0-1.5,1.5,4.388,4.388,0,0,0-.273,1.472c-.038.836-.046,1.087-.046,3.2s.008,2.368.046,3.2a4.387,4.387,0,0,0,.273,1.472,2.626,2.626,0,0,0,1.5,1.5,4.382,4.382,0,0,0,1.472.273c.836.038,1.087.046,3.2.046s2.368-.008,3.2-.046a4.382,4.382,0,0,0,1.472-.273,2.626,2.626,0,0,0,1.5-1.5,4.391,4.391,0,0,0,.273-1.472c.038-.836.046-1.087.046-3.2s-.008-2.368-.046-3.2a4.381,4.381,0,0,0-.273-1.472Zm-6.181,8.747a4.071,4.071,0,1,1,4.071-4.071A4.071,4.071,0,0,1,141.985,146.06Zm4.232-7.352a.951.951,0,1,1,.951-.951A.952.952,0,0,1,146.217,138.708Zm0,0" transform="translate(-126.985 -126.989)" fill="#fff"/>
  <path id="Path_5837" data-name="Path 5837" d="M15,0A15,15,0,1,0,30,15,15,15,0,0,0,15,0Zm8.561,18.551a6.319,6.319,0,0,1-.4,2.091,4.4,4.4,0,0,1-2.519,2.519,6.324,6.324,0,0,1-2.091.4c-.919.042-1.212.052-3.551.052s-2.633-.01-3.551-.052a6.324,6.324,0,0,1-2.091-.4,4.4,4.4,0,0,1-2.519-2.519,6.318,6.318,0,0,1-.4-2.091C6.4,17.633,6.387,17.339,6.387,15s.01-2.633.052-3.551a6.32,6.32,0,0,1,.4-2.091A4.407,4.407,0,0,1,9.358,6.839a6.325,6.325,0,0,1,2.091-.4c.919-.042,1.212-.052,3.551-.052s2.633.01,3.551.052a6.327,6.327,0,0,1,2.091.4,4.405,4.405,0,0,1,2.519,2.519,6.319,6.319,0,0,1,.4,2.091c.042.919.052,1.212.052,3.551S23.6,17.633,23.561,18.551Zm0,0" fill="#fff"/>
</svg>
