<svg xmlns="http://www.w3.org/2000/svg" width="30" height="30" viewBox="0 0 30 30">
  <path id="snapchat" d="M15,0A15,15,0,1,0,30,15,15,15,0,0,0,15,0Zm8.983,19.843c-.108.252-.594.61-2.292.872-.139.021-.193.2-.276.582-.03.138-.061.274-.1.416a.227.227,0,0,1-.243.182h-.021a2.13,2.13,0,0,1-.38-.048,5.09,5.09,0,0,0-1.021-.108,4.534,4.534,0,0,0-.737.062,3.53,3.53,0,0,0-1.4.715,3.955,3.955,0,0,1-2.425.957c-.047,0-.092,0-.138,0-.029,0-.06,0-.09,0a3.952,3.952,0,0,1-2.423-.956,3.539,3.539,0,0,0-1.4-.715,4.528,4.528,0,0,0-.736-.062,5.046,5.046,0,0,0-1.021.115,2.234,2.234,0,0,1-.38.055.239.239,0,0,1-.264-.189c-.042-.144-.073-.284-.1-.419-.076-.347-.13-.561-.275-.584-1.7-.262-2.185-.62-2.293-.874a.326.326,0,0,1-.026-.108.191.191,0,0,1,.16-.2,5.63,5.63,0,0,0,3.831-3.212l0-.009a1,1,0,0,0,.093-.836c-.179-.422-.764-.608-1.151-.73-.095-.03-.184-.058-.255-.087-.772-.305-.836-.618-.806-.778a.729.729,0,0,1,.709-.462.5.5,0,0,1,.211.042,2.253,2.253,0,0,0,.931.245.767.767,0,0,0,.556-.177c-.01-.177-.022-.361-.033-.552A9.13,9.13,0,0,1,10.4,9.336a4.724,4.724,0,0,1,4.386-2.829l.321,0h.043a4.731,4.731,0,0,1,4.393,2.83,9.14,9.14,0,0,1,.216,3.645l0,.054c-.011.172-.021.339-.03.5a.744.744,0,0,0,.507.176h0a2.334,2.334,0,0,0,.877-.244.656.656,0,0,1,.272-.054.837.837,0,0,1,.313.06l.006,0a.576.576,0,0,1,.438.469c0,.181-.135.453-.812.72-.07.028-.16.056-.255.086-.387.123-.971.309-1.151.73a.994.994,0,0,0,.093.835l0,.009a5.626,5.626,0,0,0,3.831,3.212.191.191,0,0,1,.16.2.32.32,0,0,1-.027.109Zm0,0" fill="#fff"/>
</svg>
