<svg xmlns="http://www.w3.org/2000/svg" width="252.898" height="53.96" viewBox="0 0 252.898 53.96">
  <g id="Group_16179" data-name="Group 16179" transform="translate(-73 -392)">
    <path id="Path_47" data-name="Path 47" d="M413.082,50.393c0,3.8-.054,7.6,0,11.339.109,6.836-5.317,11.284-11.5,11.61-2.17.109-4.34-.109-6.51.054-2.333.163-1.79-1.411-1.79-2.658s-.542-2.821,1.79-2.713,4.72.109,7.053,0a5.821,5.821,0,0,0,5.534-4.991c.108-1.085.108-2.062-1.519-1.411-9.223,3.635-16.927-3.309-16.167-11.827a71.718,71.718,0,0,0,0-10.8c-.108-2.279.814-2.6,2.767-2.6s2.658.38,2.55,2.5c-.217,3.96-.109,7.921-.054,11.881s2.6,6.673,6.239,6.673c3.689,0,6.185-2.658,6.185-6.673,0-4.123.163-8.3-.054-12.424-.109-2.333,1.248-1.953,2.55-1.9,1.248.109,3.038-.814,2.93,1.79C412.974,42.255,413.082,46.324,413.082,50.393Z" transform="translate(-87.189 369.885)" fill="#ec3af5"/>
    <path id="Path_48" data-name="Path 48" d="M273.323,51.378c-2.984,0-5.968.054-8.952,0-1.573-.054-1.736.543-.977,1.736a8.411,8.411,0,0,0,7.161,4.177c2.17.054,4.34.108,6.51,0,2.062-.109,1.573,1.3,1.519,2.333s.814,2.713-1.465,2.658c-2.713-.109-5.425.108-8.138-.163-6.673-.6-11.61-6.348-11.556-13.346a13.06,13.06,0,0,1,11.99-13.021,13.352,13.352,0,0,1,14.106,10.471c1.031,5.208,1.031,5.208-4.232,5.208C277.338,51.378,275.33,51.378,273.323,51.378ZM262.8,46.441h14.16c1.736,0,1.085-.868.651-1.682a7.95,7.95,0,0,0-7.975-3.906C266.325,41.233,264.1,42.969,262.8,46.441Z" transform="translate(-35.644 370.147)" fill="#ec3af5"/>
    <path id="Path_50" data-name="Path 50" d="M186.25,54.233a48.552,48.552,0,0,1-.054,4.937c-.109,1.031.814,2.821-.922,2.821-1.411.054-3.635,1.573-4.34-1.519-.326-1.411-1.465-.434-2.116,0-5.751,3.526-12.966.977-16.276-3.147a13.306,13.306,0,0,1-.109-16.71c3.418-4.177,7.921-6.022,13.238-4.666,5.154,1.356,8.9,4.5,10.145,9.982C186.467,48.862,186.141,51.737,186.25,54.233ZM172.741,40.724a8.051,8.051,0,0,0-8.084,8.3,8.247,8.247,0,1,0,8.084-8.3Z" transform="translate(2.439 370.222)" fill="#5cd6f5"/>
    <path id="Path_52" data-name="Path 52" d="M132.418,41.481c.271-3.743-.543-8.355.434-12.912a12.9,12.9,0,0,1,10.416-10.037c.814-.109,2.333-.977,2.279.705-.054,1.411,1.356,3.526-1.356,4.177a8.35,8.35,0,0,0-6.4,5.968c-.488,1.519-.163,2.441,1.682,2.224.977-.109,2.007.109,2.984-.054,2.713-.434,3.418.705,3.2,3.255-.163,1.628-.76,1.9-2.17,1.9-6.022.163-6.022.217-6.022,6.348,0,3.526-.109,7.053.054,10.525.054,2.007-1.139,1.9-2.441,1.79-1.194-.109-2.821.6-2.767-1.736C132.472,49.891,132.418,46.093,132.418,41.481Z" transform="translate(13.032 376.951)" fill="#5cd6f5"/>
    <path id="Path_53" data-name="Path 53" d="M220.691,66.086c-4.666-8.572-8.952-16.547-13.346-24.576,5.479-.705,5.479-.705,7.867,3.635,1.736,3.147,3.418,6.293,5.154,9.494,1.139-.271,1.248-1.3,1.628-2.007l8.138-14.648c.705-1.248,5.045-2.224,5.968-1.411.543.488.109.977-.109,1.411-3.255,5.588-6.022,11.393-9.494,16.872C224.326,58.219,222.807,61.963,220.691,66.086Z" transform="translate(-16.16 369.925)" fill="#5cd6f5"/>
    <path id="Path_54" data-name="Path 54" d="M357.731,33.742c0-3.526.163-7.053-.054-10.525-.109-2.17,1.031-2.062,2.5-2.007,1.3.054,2.875-.434,2.6,1.9-.163,1.519.163,3.092-.054,4.611-.38,2.55.76,3.2,2.984,2.875a8.158,8.158,0,0,1,1.628,0c2.55,0,3.8,1.953,2.767,4.286-.434,1.031-1.356.651-2.116.651-5.262.163-5.262.163-5.262,5.479,0,1.9-.109,3.8.705,5.588,1.628,3.526,4.394,5.262,8.246,4.937,2.17-.163,2.441.651,2.5,2.6.054,2.062-.6,2.5-2.6,2.5-8.3-.054-13.834-5.588-13.889-13.889C357.731,39.655,357.731,36.726,357.731,33.742Z" transform="translate(-74.643 375.794)" fill="#ec3af5"/>
    <path id="Path_55" data-name="Path 55" d="M307.857,52.154c-.6-4.991.488-9.494,4.5-12.912a12.985,12.985,0,0,1,9.277-2.93c2.062.109,1.356,1.519,1.356,2.5s.651,2.333-1.356,2.55c-6.89.705-8.9,2.984-8.9,9.82,0,3.147-.054,6.293.109,9.44.109,1.845-.977,1.9-2.17,1.682-1.085-.163-2.93.922-2.821-1.573C307.911,57.9,307.857,55.029,307.857,52.154Z" transform="translate(-55.204 369.914)" fill="#ec3af5"/>
    <path id="Path_56" data-name="Path 56" d="M344.024,49.437c0,3.689-.109,7.378.054,11.067.108,2.062-1.031,1.953-2.333,1.845-1.194-.109-2.767.705-2.713-1.736q.163-11.23,0-22.46c-.054-2.279,1.356-1.79,2.6-1.845,1.465-.054,2.55-.109,2.441,2.007C343.861,42.058,344.024,45.748,344.024,49.437Z" transform="translate(-67.391 369.918)" fill="#ec3af5"/>
    <g id="Group_33" data-name="Group 33" transform="translate(59.097 378.966)">
      <path id="Path_49" data-name="Path 49" d="M53.5,16.932c3.309,2.984,4.883,6.836,6.185,11.067,2.062,6.836,5.425,10.254,12.153,9.657,4.611-.434,8.68-4.991,8.626-9.874-.054-4.937-4.177-9.44-8.843-9.657a10.783,10.783,0,0,0-7.161,1.79c-2.333,1.736-2.713-1.085-3.852-1.9-1.3-.977.271-1.465.814-1.9A15.078,15.078,0,0,1,81.978,18.5,14.486,14.486,0,0,1,80.568,38.47c-8.192,7.6-19.639,4.828-24.414-5.913C54.69,29.3,54.31,25.612,52.3,22.52,53.442,20.838,52.9,18.776,53.5,16.932Z" transform="translate(-14.939 -0.034)" fill="#ec3af5"/>
      <path id="Path_51" data-name="Path 51" d="M38.557,16.9c-.6,1.845-.054,3.906-1.248,5.588C32.264,17.278,27.6,16.735,22.5,20.044c-3.581,2.333-4.937,9.82-1.682,13.78,3.472,4.177,9.06,5.317,13.455,2.116,2.55-1.9,3.147.543,4.177,1.519,1.519,1.465-.434,1.953-1.194,2.5A14.823,14.823,0,0,1,15.229,21.672a14.549,14.549,0,0,1,16.059-8.355C33.946,13.86,36.767,14.565,38.557,16.9Z" fill="#5cd6f5"/>
      <path id="Path_57" data-name="Path 57" d="M61.182,79.012c3.526-4.34,7.053-8.68,10.525-13.021a3.03,3.03,0,0,1,2.387-.922c1.682-.163,3.364-.488,5.588-.868-5.913,7-11.556,13.78-17.252,20.562C61.237,83.027,62.376,80.748,61.182,79.012Z" transform="translate(-18.394 -19.906)" fill="#ec3af5"/>
      <path id="Path_58" data-name="Path 58" d="M52.346,81.462c1.194,1.736.054,4.015,1.248,5.751-1.9,2.821-1.9,2.821-4.015.163-3.472-4.232-6.836-8.572-10.416-12.7-1.845-2.17.488-2.441,1.248-3.418,1.085-1.356,1.845-.705,2.713.38,2.55,3.309,5.317,6.51,7.758,9.874C51.641,82.493,51.858,81.462,52.346,81.462Z" transform="translate(-9.557 -22.356)" fill="#5cd6f5"/>
    </g>
    <path id="Path_59" data-name="Path 59" d="M343.821,23.773c.6,2.279-.705,2.333-2.5,2.5-2.333.163-2.279-.977-2.387-2.713-.109-2.007.705-2.279,2.5-2.333C343.387,21.223,344.31,21.711,343.821,23.773Z" transform="translate(-67.352 375.78)" fill="#ec3af5"/>
  </g>
</svg>
