<svg xmlns="http://www.w3.org/2000/svg" width="33.333" height="33.333" viewBox="0 0 33.333 33.333"><defs><style>.a{fill:#fff;}</style></defs><g transform="translate(-187.75 -837.25)"><g transform="translate(187.75 837.25)"><g transform="translate(0 0)"><g transform="translate(0 0)"><path class="a" d="M31.944,15.278a1.389,1.389,0,0,0-1.389,1.389,13.888,13.888,0,1,1-4.033-9.786,1.389,1.389,0,0,0,1.971-1.957,16.667,16.667,0,1,0,4.84,11.743A1.389,1.389,0,0,0,31.944,15.278Z" transform="translate(0 0)"/></g></g><g transform="translate(9.722 9.722)"><path class="a" d="M124.5,117.556h-4.167v-4.167a1.389,1.389,0,0,0-2.778,0v4.167h-4.167a1.389,1.389,0,0,0,0,2.778h4.167V124.5a1.389,1.389,0,0,0,2.778,0v-4.167H124.5a1.389,1.389,0,0,0,0-2.778Z" transform="translate(-112 -112)"/></g></g></g></svg>