<svg xmlns="http://www.w3.org/2000/svg" width="35.333" height="30.622" viewBox="0 0 35.333 30.622"><defs><style>.a{fill:#fff;}</style></defs><g transform="translate(-1 -3)"><path class="a" d="M32.032,7.711H26.975l-.589-1.767A4.293,4.293,0,0,0,22.3,3H15.029a4.294,4.294,0,0,0-4.08,2.944l-.59,1.767H5.3a4.306,4.306,0,0,0-4.3,4.3V29.326a4.306,4.306,0,0,0,4.3,4.3H32.037a4.306,4.306,0,0,0,4.3-4.3V12.008a4.306,4.306,0,0,0-4.3-4.3Zm1.946,21.61a1.948,1.948,0,0,1-1.946,1.946H5.3a1.948,1.948,0,0,1-1.946-1.946V12.008A1.948,1.948,0,0,1,5.3,10.067h5.907a1.178,1.178,0,0,0,1.117-.806l.859-2.576a1.943,1.943,0,0,1,1.846-1.33H22.3a1.942,1.942,0,0,1,1.846,1.331l.859,2.575a1.178,1.178,0,0,0,1.117.806h5.907a1.948,1.948,0,0,1,1.946,1.946Z" transform="translate(0 0)"/><path class="a" d="M17.333,10a8.833,8.833,0,1,0,8.833,8.833A8.833,8.833,0,0,0,17.333,10Zm0,15.311a6.478,6.478,0,1,1,6.478-6.478,6.478,6.478,0,0,1-6.478,6.478Z" transform="translate(1.333 1.244)"/><circle class="a" cx="1" cy="1" r="1" transform="translate(29.667 12.311)"/></g></svg>