<svg xmlns="http://www.w3.org/2000/svg" width="30" height="23.064" viewBox="0 0 24.278 23.064">
    <defs>
        <style>.a{fill:#3c71ef;}</style>
    </defs>
    <path class="a"
          d="M12.139,1.5C5.446,1.5,0,6.4,0,12.425a10.1,10.1,0,0,0,1.929,5.909c-.239,2.645-.88,4.609-1.811,5.539a.4.4,0,0,0,.286.691.38.38,0,0,0,.056,0A21.617,21.617,0,0,0,7.185,22.4a13.171,13.171,0,0,0,4.954.95c6.694,0,12.139-4.9,12.139-10.925S18.833,1.5,12.139,1.5ZM6.474,14.044a1.619,1.619,0,1,1,1.619-1.619A1.62,1.62,0,0,1,6.474,14.044Zm5.665,0a1.619,1.619,0,1,1,1.619-1.619A1.62,1.62,0,0,1,12.139,14.044Zm5.665,0a1.619,1.619,0,1,1,1.619-1.619A1.62,1.62,0,0,1,17.8,14.044Z"
          transform="translate(0 -1.5)"/>
</svg>