<svg xmlns="http://www.w3.org/2000/svg" width="30" height="23.064" viewBox="0 0 28 23.064">
    <defs>
        <style>.a{fill:#ec3af5;}</style>
    </defs>
    <path class="a"
          d="M63.884,78.9a7.381,7.381,0,0,0-8.835-2.291A8.864,8.864,0,0,0,51.5,79.5a8.811,8.811,0,0,0-3.549-2.883A7.381,7.381,0,0,0,39.116,78.9,8.159,8.159,0,0,0,37.5,83.909c0,2.719,1.622,5.7,4.82,8.87A46.852,46.852,0,0,0,49.608,98.5a3.51,3.51,0,0,0,3.784,0A46.912,46.912,0,0,0,60.68,92.78c3.2-3.167,4.82-6.151,4.82-8.87A8.159,8.159,0,0,0,63.884,78.9Z"
          transform="translate(-37.5 -75.992)"/>
</svg>