<svg xmlns="http://www.w3.org/2000/svg" width="10" height="12.026" viewBox="0 0 14.6 12.026">
    <defs>
        <style>.a{fill:#ec3af5;}</style>
    </defs>
    <path class="a"
          d="M51.257,77.51a3.849,3.849,0,0,0-4.607-1.194,4.622,4.622,0,0,0-1.851,1.5,4.6,4.6,0,0,0-1.851-1.5,3.849,3.849,0,0,0-4.607,1.194,4.254,4.254,0,0,0-.843,2.61c0,1.418.846,2.973,2.513,4.625a24.429,24.429,0,0,0,3.8,2.984,1.83,1.83,0,0,0,1.973,0,24.46,24.46,0,0,0,3.8-2.984c1.667-1.651,2.513-3.207,2.513-4.625A4.254,4.254,0,0,0,51.257,77.51Z"
          transform="translate(-37.5 -75.992)"/>
</svg>