<svg xmlns="http://www.w3.org/2000/svg" width="30" height="22.653" viewBox="0 0 27.062 22.653">
    <defs>
        <style>.a{fill:#2e646a;}</style>
    </defs>
    <path class="a"
          d="M26.139,48.593l-6.126-6.126a2.2,2.2,0,0,0-1.524-.762c-.694,0-1.5.528-1.5,2.016v2.086A17.778,17.778,0,0,0,0,63.566a.793.793,0,0,0,1.427.476,20.273,20.273,0,0,1,15.558-8.16v2.053c0,1.488.811,2.016,1.5,2.016h0a2.2,2.2,0,0,0,1.524-.762l6.126-6.126a3.169,3.169,0,0,0,0-4.471Z"
          transform="translate(0 -41.705)"/>
</svg>