<svg xmlns="http://www.w3.org/2000/svg" width="21.618" height="21" viewBox="0 0 21.618 21"><defs><style>.a{fill:#ffd54f;}.b{fill:#e53935;}.c{fill:#6d4c41;}</style></defs><g transform="translate(0 -0.495)"><circle class="a" cx="10.5" cy="10.5" r="10.5" transform="translate(0.618 0.495)"/><path class="b" d="M20.861.964a2.211,2.211,0,0,0-1.361.465A2.211,2.211,0,0,0,18.139.964,2.1,2.1,0,0,0,16,3.008c0,1.756,2.6,3.662,3.124,4.026a.658.658,0,0,0,.753,0C20.4,6.669,23,4.764,23,3.008A2.1,2.1,0,0,0,20.861.964Z" transform="translate(-2 -0.237)"/><path class="b" d="M4.861,16.964a2.211,2.211,0,0,0-1.361.465,2.211,2.211,0,0,0-1.361-.465A2.1,2.1,0,0,0,0,19.008c0,1.756,2.6,3.662,3.124,4.026a.658.658,0,0,0,.753,0C4.4,22.669,7,20.764,7,19.008a2.1,2.1,0,0,0-2.139-2.044Z" transform="translate(0 -2.237)"/><g transform="translate(4.375 6.884)"><path class="c" d="M8.719,10.844a.656.656,0,0,1-.656-.656.875.875,0,1,0-1.75,0,.656.656,0,0,1-1.313,0,2.187,2.187,0,1,1,4.375,0A.656.656,0,0,1,8.719,10.844Z" transform="translate(-5 -8)"/><path class="c" d="M17.719,10.844a.656.656,0,0,1-.656-.656.875.875,0,1,0-1.75,0,.656.656,0,1,1-1.312,0,2.187,2.187,0,1,1,4.375,0A.656.656,0,0,1,17.719,10.844Z" transform="translate(-6.125 -8)"/><path class="c" d="M11.25,17.541a7.1,7.1,0,0,1-5.057-2.1.656.656,0,1,1,.928-.928,5.839,5.839,0,0,0,8.259,0,.656.656,0,1,1,.928.928A7.108,7.108,0,0,1,11.25,17.541Z" transform="translate(-5.125 -8.791)"/></g></g></svg>