<svg xmlns="http://www.w3.org/2000/svg" width="160.769" height="34.302" viewBox="0 0 160.769 34.302">
  <g id="Faverity" transform="translate(-13.903 -13.034)">
    <path id="Path_47" data-name="Path 47" d="M404.644,45.287c0,2.414-.034,4.828,0,7.208.069,4.346-3.38,7.174-7.312,7.381-1.38.069-2.759-.069-4.139.034-1.483.1-1.138-.9-1.138-1.69s-.345-1.793,1.138-1.724,3,.069,4.484,0a3.7,3.7,0,0,0,3.518-3.173c.069-.69.069-1.311-.966-.9a7.284,7.284,0,0,1-10.278-7.519,45.6,45.6,0,0,0,0-6.863c-.069-1.449.517-1.655,1.759-1.655s1.69.241,1.621,1.586c-.138,2.518-.069,5.035-.035,7.553s1.655,4.242,3.966,4.242c2.345,0,3.932-1.69,3.932-4.242,0-2.621.1-5.277-.034-7.9-.069-1.483.793-1.242,1.621-1.207.793.069,1.931-.517,1.862,1.138C404.575,40.113,404.644,42.7,404.644,45.287Z" transform="translate(-229.975 -14.277)" fill="#ec3af5"/>
    <path id="Path_48" data-name="Path 48" d="M267.532,45.667c-1.9,0-3.794.034-5.691,0-1-.034-1.1.345-.621,1.1a5.347,5.347,0,0,0,4.552,2.656c1.38.034,2.759.069,4.139,0,1.311-.069,1,.828.966,1.483s.517,1.724-.931,1.69c-1.724-.069-3.449.069-5.173-.1a8.436,8.436,0,0,1,.276-16.761,8.488,8.488,0,0,1,8.967,6.656c.655,3.311.655,3.311-2.69,3.311C270.084,45.667,268.808,45.667,267.532,45.667Zm-6.691-3.138h9c1.1,0,.69-.552.414-1.069a5.054,5.054,0,0,0-5.07-2.483A4.94,4.94,0,0,0,260.841,42.529Z" transform="translate(-148.941 -13.864)" fill="#ec3af5"/>
    <path id="Path_50" data-name="Path 50" d="M176.518,47.412a30.853,30.853,0,0,1-.035,3.138c-.069.655.517,1.793-.586,1.793-.9.034-2.311,1-2.759-.966-.207-.9-.931-.276-1.345,0-3.656,2.242-8.243.621-10.347-2a8.459,8.459,0,0,1-.069-10.622,7.833,7.833,0,0,1,8.415-2.966,8.236,8.236,0,0,1,6.449,6.346A28.213,28.213,0,0,1,176.518,47.412Zm-8.588-8.588a5.118,5.118,0,0,0-5.139,5.277,5.243,5.243,0,1,0,5.139-5.277Z" transform="translate(-89.071 -13.747)" fill="#5cd6f5"/>
    <path id="Path_52" data-name="Path 52" d="M132.378,33c.172-2.38-.345-5.311.276-8.208a8.2,8.2,0,0,1,6.622-6.38c.517-.069,1.483-.621,1.449.448-.035.9.862,2.242-.862,2.656a5.308,5.308,0,0,0-4.07,3.794c-.31.966-.1,1.552,1.069,1.414.621-.069,1.276.069,1.9-.034,1.724-.276,2.173.448,2.035,2.069-.1,1.035-.483,1.207-1.38,1.207-3.828.1-3.828.138-3.828,4.035,0,2.242-.069,4.484.035,6.691.034,1.276-.724,1.207-1.552,1.138-.759-.069-1.793.379-1.759-1.1C132.412,38.351,132.378,35.936,132.378,33Z" transform="translate(-72.418 -3.167)" fill="#5cd6f5"/>
    <path id="Path_53" data-name="Path 53" d="M215.829,55.226c-2.966-5.449-5.691-10.519-8.484-15.623,3.483-.448,3.483-.448,5,2.311,1.1,2,2.173,4,3.276,6.036.724-.172.793-.828,1.035-1.276l5.173-9.312c.448-.793,3.207-1.414,3.794-.9.345.31.069.621-.069.9-2.069,3.552-3.828,7.243-6.035,10.726C218.14,50.225,217.174,52.6,215.829,55.226Z" transform="translate(-118.311 -14.214)" fill="#5cd6f5"/>
    <path id="Path_54" data-name="Path 54" d="M357.709,29.169c0-2.242.1-4.484-.034-6.691-.069-1.38.655-1.311,1.586-1.276.828.034,1.828-.276,1.655,1.207-.1.966.1,1.966-.034,2.932-.241,1.621.483,2.035,1.9,1.828a5.187,5.187,0,0,1,1.035,0,1.8,1.8,0,0,1,1.759,2.725c-.276.655-.862.414-1.345.414-3.345.1-3.345.1-3.345,3.483a8.285,8.285,0,0,0,.448,3.552,4.931,4.931,0,0,0,5.242,3.138c1.38-.1,1.552.414,1.587,1.655.034,1.311-.379,1.586-1.655,1.586-5.277-.034-8.795-3.552-8.829-8.829C357.709,32.928,357.709,31.066,357.709,29.169Z" transform="translate(-210.251 -4.987)" fill="#ec3af5"/>
    <path id="Path_55" data-name="Path 55" d="M307.8,46.379c-.379-3.173.31-6.035,2.863-8.208a8.255,8.255,0,0,1,5.9-1.862c1.311.069.862.966.862,1.586s.414,1.483-.862,1.621c-4.38.448-5.656,1.9-5.656,6.242,0,2-.034,4,.069,6,.069,1.173-.621,1.207-1.38,1.069-.69-.1-1.862.586-1.793-1C307.836,50.035,307.8,48.207,307.8,46.379Z" transform="translate(-179.692 -14.231)" fill="#ec3af5"/>
    <path id="Path_56" data-name="Path 56" d="M342.2,44.648c0,2.345-.069,4.69.035,7.036.069,1.311-.655,1.242-1.483,1.173-.759-.069-1.759.448-1.724-1.1q.1-7.139,0-14.278c-.035-1.449.862-1.138,1.655-1.173.931-.034,1.621-.069,1.552,1.276C342.1,39.957,342.2,42.3,342.2,44.648Z" transform="translate(-198.851 -14.224)" fill="#ec3af5"/>
    <g id="Group_33" data-name="Group 33" transform="translate(13.903 13.034)">
      <path id="Path_49" data-name="Path 49" d="M53.061,15.543c2.1,1.9,3.1,4.346,3.932,7.036,1.311,4.346,3.449,6.518,7.725,6.139A6.422,6.422,0,0,0,70.2,22.441,6.3,6.3,0,0,0,64.58,16.3a6.855,6.855,0,0,0-4.552,1.138c-1.483,1.1-1.724-.69-2.449-1.207-.828-.621.172-.931.517-1.207a9.585,9.585,0,0,1,13.071,1.517,9.209,9.209,0,0,1-.9,12.692c-5.208,4.828-12.485,3.069-15.52-3.759-.931-2.069-1.173-4.415-2.449-6.38C53.027,18.027,52.682,16.716,53.061,15.543Z" transform="translate(-37.388 -13.087)" fill="#ec3af5"/>
      <path id="Path_51" data-name="Path 51" d="M29.576,15.49c-.379,1.173-.034,2.483-.793,3.552-3.207-3.311-6.173-3.656-9.415-1.552-2.276,1.483-3.138,6.242-1.069,8.76,2.207,2.656,5.76,3.38,8.553,1.345,1.621-1.207,2,.345,2.656.966.966.931-.276,1.242-.759,1.586a9.423,9.423,0,0,1-14-11.623,9.249,9.249,0,0,1,10.209-5.311C26.644,13.559,28.438,14.007,29.576,15.49Z" transform="translate(-13.903 -13.034)" fill="#5cd6f5"/>
      <path id="Path_57" data-name="Path 57" d="M61.182,73.617c2.242-2.759,4.484-5.518,6.691-8.277a1.927,1.927,0,0,1,1.518-.586c1.069-.1,2.138-.31,3.552-.552-3.759,4.449-7.346,8.76-10.967,13.071C61.217,76.169,61.941,74.72,61.182,73.617Z" transform="translate(-42.819 -44.328)" fill="#ec3af5"/>
      <path id="Path_58" data-name="Path 58" d="M47.291,77.468c.759,1.1.034,2.552.793,3.656-1.207,1.793-1.207,1.793-2.552.1-2.207-2.69-4.346-5.449-6.622-8.07-1.173-1.38.31-1.552.793-2.173.69-.862,1.173-.448,1.724.241,1.621,2.1,3.38,4.139,4.932,6.277C46.842,78.123,46.98,77.468,47.291,77.468Z" transform="translate(-28.928 -48.179)" fill="#5cd6f5"/>
    </g>
    <path id="Path_59" data-name="Path 59" d="M342.039,22.844c.379,1.449-.448,1.483-1.586,1.586-1.483.1-1.449-.621-1.517-1.724-.069-1.276.448-1.449,1.586-1.483C341.763,21.223,342.35,21.533,342.039,22.844Z" transform="translate(-198.789 -5.008)" fill="#ec3af5"/>
  </g>
</svg>
