<svg xmlns="http://www.w3.org/2000/svg" width="26.474" height="27.19" viewBox="0 0 26.474 27.19"><defs><style>.a{fill:#fff;fill-rule:evenodd;}</style></defs><g transform="translate(-2.263 -2)"><path class="a" d="M8.968,5.247a12.277,12.277,0,0,0-1.291.94l.539,1.2A2.719,2.719,0,0,1,5.444,11.2l-1.312-.142a12.128,12.128,0,0,0-.493,1.517l1.145.656a2.719,2.719,0,0,1,0,4.718l-1.145.656a12.135,12.135,0,0,0,.493,1.517l1.312-.142A2.719,2.719,0,0,1,8.217,23.8L7.678,25a12.279,12.279,0,0,0,1.291.939l.977-.885a2.719,2.719,0,0,1,4.487,1.458l.27,1.289q.4.025.8.026t.8-.026l.27-1.289a2.719,2.719,0,0,1,4.487-1.458l.977.885A12.285,12.285,0,0,0,23.323,25l-.539-1.2a2.719,2.719,0,0,1,2.773-3.817l1.312.142a12.124,12.124,0,0,0,.493-1.517l-1.145-.656a2.719,2.719,0,0,1,0-4.718l1.145-.656a12.118,12.118,0,0,0-.493-1.517l-1.312.142a2.719,2.719,0,0,1-2.773-3.817l.539-1.2a12.286,12.286,0,0,0-1.291-.94l-.977.885a2.719,2.719,0,0,1-4.487-1.458L16.3,3.385q-.4-.025-.8-.026t-.8.026l-.27,1.289A2.719,2.719,0,0,1,9.945,6.132Zm.884-1.033A1.278,1.278,0,0,0,8.32,4.049,13.638,13.638,0,0,0,6.738,5.2a1.279,1.279,0,0,0-.316,1.508l.555,1.236A1.36,1.36,0,0,1,5.59,9.853L4.239,9.707a1.278,1.278,0,0,0-1.336.766A13.489,13.489,0,0,0,2.3,12.336a1.278,1.278,0,0,0,.631,1.4l1.178.675a1.36,1.36,0,0,1,0,2.359l-1.178.675a1.278,1.278,0,0,0-.631,1.4A13.489,13.489,0,0,0,2.9,20.718a1.278,1.278,0,0,0,1.336.766l1.351-.146a1.359,1.359,0,0,1,1.387,1.908l-.555,1.236a1.279,1.279,0,0,0,.316,1.508A13.624,13.624,0,0,0,8.32,27.141a1.278,1.278,0,0,0,1.533-.165l1.005-.911a1.36,1.36,0,0,1,2.243.729l.278,1.327a1.278,1.278,0,0,0,1.144,1.034q.484.034.977.035t.977-.035a1.278,1.278,0,0,0,1.144-1.034l.278-1.327a1.36,1.36,0,0,1,2.243-.729l1.005.911a1.278,1.278,0,0,0,1.533.165,13.619,13.619,0,0,0,1.582-1.152,1.279,1.279,0,0,0,.316-1.508l-.555-1.236a1.359,1.359,0,0,1,1.387-1.908l1.351.146a1.278,1.278,0,0,0,1.336-.766,13.5,13.5,0,0,0,.6-1.863,1.278,1.278,0,0,0-.631-1.4l-1.178-.675a1.36,1.36,0,0,1,0-2.359l1.178-.675a1.278,1.278,0,0,0,.631-1.4,13.5,13.5,0,0,0-.6-1.863,1.278,1.278,0,0,0-1.336-.766l-1.351.146a1.36,1.36,0,0,1-1.387-1.908l.555-1.236A1.279,1.279,0,0,0,24.263,5.2a13.633,13.633,0,0,0-1.582-1.152,1.278,1.278,0,0,0-1.533.165l-1.005.911A1.36,1.36,0,0,1,17.9,4.4l-.278-1.327a1.278,1.278,0,0,0-1.144-1.034Q15.994,2,15.5,2t-.977.035a1.278,1.278,0,0,0-1.144,1.034L13.1,4.4a1.359,1.359,0,0,1-2.243.729Z"/><path class="a" d="M7.042,12.731a.655.655,0,0,1,.832-.509.786.786,0,0,1,.546.877A5.441,5.441,0,1,0,9.8,10.144a.787.787,0,0,1-1.023.147.655.655,0,0,1-.146-.964,6.857,6.857,0,1,1-1.586,3.4Z" transform="translate(1.687 1.782)"/></g></svg>