<svg xmlns="http://www.w3.org/2000/svg" width="18.571" height="26" viewBox="0 0 18.571 26"><defs><style>.a{fill:#fff;}</style></defs><g transform="translate(-6 -2)"><path class="a" d="M21.786,11.286H10.643V8.231a4.374,4.374,0,0,1,4.374-4.374h.539a4.374,4.374,0,0,1,4.374,4.374.929.929,0,1,0,1.857,0A6.24,6.24,0,0,0,15.555,2h-.539A6.24,6.24,0,0,0,8.786,8.231v3.055A2.786,2.786,0,0,0,6,14.071v8.636A5.3,5.3,0,0,0,11.293,28h7.986a5.3,5.3,0,0,0,5.293-5.293V14.071A2.786,2.786,0,0,0,21.786,11.286Zm.929,11.421a3.436,3.436,0,0,1-3.436,3.436H11.293a3.436,3.436,0,0,1-3.436-3.436V14.071a.929.929,0,0,1,.929-.929h13a.929.929,0,0,1,.929.929Zm-6.5-3.324v3.046a.929.929,0,0,1-1.857,0V19.383a1.857,1.857,0,1,1,1.857,0Z"/></g></svg>